<?xml version="1.0" encoding="UTF-8"?>
<svg xmlns="http://www.w3.org/2000/svg" xmlns:xlink="http://www.w3.org/1999/xlink" width="500px" height="500px" viewBox="0 0 500 500" version="1.1">
<g id="surface1">
<path style="fill-rule:nonzero;fill:rgb(21.176471%,23.921569%,32.156863%);fill-opacity:1;stroke-width:4;stroke-linecap:butt;stroke-linejoin:miter;stroke:rgb(12.941176%,14.509804%,19.607843%);stroke-opacity:1;stroke-miterlimit:4;" d="M 16 2 L 112 2 C 119.732 2 126 8.268 126 16 L 126 112 C 126 119.732 119.732 126 112 126 L 16 126 C 8.268 126 2 119.732 2 112 L 2 16 C 2 8.268 8.268 2 16 2 Z M 16 2 " transform="matrix(3.90625,0,0,3.90625,0,0)"/>
<path style=" stroke:none;fill-rule:nonzero;fill:rgb(100%,100%,100%);fill-opacity:1;" d="M 89.558594 313.652344 L 89.558594 326.671875 C 196.609375 419.78125 303.65625 419.78125 410.707031 326.671875 L 410.707031 313.652344 Z M 89.558594 313.652344 "/>
<path style=" stroke:none;fill-rule:nonzero;fill:rgb(27.843137%,54.901961%,74.901961%);fill-opacity:1;" d="M 89.558594 313.652344 L 149.527344 319.175781 C 152.683594 319.4375 154.65625 321.28125 155.445312 324.699219 L 157.023438 351.132812 L 209.101562 355.078125 L 212.257812 331.011719 C 212.785156 328.117188 214.757812 326.144531 218.175781 325.09375 L 282.089844 325.09375 C 285.507812 326.144531 287.480469 328.117188 288.007812 331.011719 L 291.164062 355.078125 L 343.242188 351.132812 L 344.820312 324.699219 C 345.609375 321.28125 347.582031 319.4375 350.738281 319.175781 L 410.707031 313.652344 L 410.707031 216.597656 C 418.597656 206.339844 425.960938 195.6875 432.800781 184.640625 C 423.59375 169.121094 412.679688 154.917969 400.054688 142.03125 C 388.746094 147.292969 377.960938 153.472656 367.703125 160.574219 C 357.183594 150.84375 345.609375 142.425781 332.984375 135.324219 C 334.824219 121.910156 335.878906 108.496094 336.140625 95.082031 C 320.621094 87.71875 304.445312 82.195312 287.613281 78.511719 C 280.773438 89.820312 274.726562 101.527344 269.464844 113.625 C 256.578125 111.785156 243.6875 111.785156 230.800781 113.625 C 225.539062 101.527344 219.492188 89.820312 212.652344 78.511719 C 195.820312 82.195312 179.644531 87.71875 164.125 95.082031 C 164.386719 108.496094 165.441406 121.910156 167.28125 135.324219 C 154.65625 142.425781 143.082031 150.84375 132.5625 160.574219 C 122.304688 153.472656 111.519531 147.292969 100.210938 142.03125 C 87.585938 154.917969 76.671875 169.121094 67.464844 184.640625 C 74.304688 195.6875 81.667969 206.339844 89.558594 216.597656 Z M 89.558594 326.671875 L 89.558594 342.058594 C 89.558594 450.949219 410.3125 450.949219 410.3125 342.058594 L 410.3125 326.671875 L 357.445312 331.40625 L 355.472656 358.628906 C 354.945312 361.257812 353.105469 362.96875 349.949219 363.757812 L 286.035156 368.097656 C 282.878906 368.097656 280.773438 366.652344 279.722656 363.757812 L 275.777344 338.113281 L 224.488281 338.113281 L 220.542969 363.757812 C 219.492188 366.652344 217.386719 368.097656 214.230469 368.097656 L 150.316406 363.757812 C 147.160156 362.96875 145.320312 361.257812 144.792969 358.628906 L 142.820312 331.40625 Z M 89.558594 326.671875 "/>
<path style=" stroke:none;fill-rule:nonzero;fill:rgb(100%,100%,100%);fill-opacity:1;" d="M 238.691406 284.851562 C 239.875 298.265625 260.390625 298.265625 261.574219 284.851562 L 261.574219 250.921875 C 260.390625 237.507812 239.875 237.507812 238.691406 250.921875 Z M 238.691406 284.851562 "/>
<path style=" stroke:none;fill-rule:nonzero;fill:rgb(100%,100%,100%);fill-opacity:1;" d="M 369.675781 255.65625 C 369.675781 275.265625 353.777344 291.164062 334.167969 291.164062 C 314.558594 291.164062 298.660156 275.265625 298.660156 255.65625 C 298.660156 236.046875 314.558594 220.148438 334.167969 220.148438 C 353.777344 220.148438 369.675781 236.046875 369.675781 255.65625 Z M 369.675781 255.65625 "/>
<path style=" stroke:none;fill-rule:nonzero;fill:rgb(100%,100%,100%);fill-opacity:1;" d="M 201.605469 255.65625 C 201.605469 275.265625 185.707031 291.164062 166.097656 291.164062 C 146.488281 291.164062 130.589844 275.265625 130.589844 255.65625 C 130.589844 236.046875 146.488281 220.148438 166.097656 220.148438 C 185.707031 220.148438 201.605469 236.046875 201.605469 255.65625 Z M 201.605469 255.65625 "/>
<path style=" stroke:none;fill-rule:nonzero;fill:rgb(25.490196%,25.098039%,25.882353%);fill-opacity:1;" d="M 192.925781 258.023438 C 192.925781 271.097656 182.328125 281.695312 169.253906 281.695312 C 156.179688 281.695312 145.582031 271.097656 145.582031 258.023438 C 145.582031 244.949219 156.179688 234.351562 169.253906 234.351562 C 182.328125 234.351562 192.925781 244.949219 192.925781 258.023438 Z M 192.925781 258.023438 "/>
<path style=" stroke:none;fill-rule:nonzero;fill:rgb(25.490196%,25.098039%,25.882353%);fill-opacity:1;" d="M 354.683594 258.023438 C 354.683594 271.097656 344.085938 281.695312 331.011719 281.695312 C 317.9375 281.695312 307.339844 271.097656 307.339844 258.023438 C 307.339844 244.949219 317.9375 234.351562 331.011719 234.351562 C 344.085938 234.351562 354.683594 244.949219 354.683594 258.023438 Z M 354.683594 258.023438 "/>
</g>
</svg>
